<svg width="19px" height="18px" viewBox="0 0 19 18" version="1.1" xmlns="http://www.w3.org/2000/svg" xmlns:xlink="http://www.w3.org/1999/xlink">
    <g id="Page-1" stroke="none" stroke-width="1" fill="none" fill-rule="evenodd">
        <g id="Lista" transform="translate(-341.000000, -33.000000)" stroke="#B69F58">
            <g id="Group-2" transform="translate(342.000000, 33.000000)">
                <path d="M15.5,8.2511 L15.5,0.0001" id="Stroke-1"></path>
                <path d="M15.5,18 L15.5,11.5" id="Stroke-3"></path>
                <path d="M8.5,3.0314 L8.5,0.0004" id="Stroke-5"></path>
                <path d="M8.5,17.8869 L8.5,6.3239" id="Stroke-7"></path>
                <path d="M2,11.5431 L2,0.0001" id="Stroke-9"></path>
                <path d="M2,17.8869 L2,14.8349" id="Stroke-11"></path>
                <path d="M10.292,4.646 C10.292,5.555 9.555,6.292 8.646,6.292 C7.737,6.292 7,5.555 7,4.646 C7,3.737 7.737,3 8.646,3 C9.555,3 10.292,3.737 10.292,4.646 Z" id="Stroke-13"></path>
                <path d="M3.542,13.1896 C3.542,14.0986 2.805,14.8356 1.896,14.8356 C0.987,14.8356 0.25,14.0986 0.25,13.1896 C0.25,12.2806 0.987,11.5436 1.896,11.5436 C2.805,11.5436 3.542,12.2806 3.542,13.1896 Z" id="Stroke-15"></path>
                <path d="M17.292,9.646 C17.292,10.555 16.555,11.292 15.646,11.292 C14.736,11.292 14,10.555 14,9.646 C14,8.737 14.736,8 15.646,8 C16.555,8 17.292,8.737 17.292,9.646 Z" id="Stroke-17"></path>
            </g>
        </g>
    </g>
</svg>