<svg xmlns="http://www.w3.org/2000/svg" x="0px" y="0px"
width="25" height="25"
viewBox="0 0 172 172"
transform="rotate(-90)"
style=" fill:#000000;">
    <g fill="none" fill-rule="nonzero" stroke="none" stroke-width="1" stroke-linecap="butt" stroke-linejoin="miter" stroke-miterlimit="10" stroke-dasharray="" stroke-dashoffset="0" font-family="none" font-weight="none" font-size="none" text-anchor="none" style="mix-blend-mode: normal">
        <path d="M0,172v-172h172v172z" fill="none"></path>
        <g fill="#b69f58">
            <g id="surface1">
                <path d="M86,24.08c-6.36937,0 -11.7175,4.42094 -13.26281,10.32h-62.41719c-1.23625,-0.01344 -2.39187,0.63156 -3.02344,1.70656c-0.61813,1.075 -0.61813,2.39187 0,3.46687c0.63156,1.075 1.78719,1.72 3.02344,1.70656h62.41719c1.54531,5.89906 6.89344,10.32 13.26281,10.32c6.36938,0 11.7175,-4.42094 13.26281,-10.32h62.41719c1.23625,0.01344 2.39188,-0.63156 3.02344,-1.70656c0.61813,-1.075 0.61813,-2.39187 0,-3.46687c-0.63156,-1.075 -1.78719,-1.72 -3.02344,-1.70656h-62.41719c-1.54531,-5.89906 -6.89344,-10.32 -13.26281,-10.32zM86,30.96c3.73563,0 6.67844,2.87563 6.83969,6.57094c-0.01344,0.20156 -0.01344,0.41656 0,0.63156c-0.16125,3.68188 -3.10406,6.5575 -6.83969,6.5575c-3.73562,0 -6.67844,-2.87562 -6.83969,-6.57094c0.01344,-0.20156 0.01344,-0.41656 0,-0.63156c0.16125,-3.68187 3.10406,-6.5575 6.83969,-6.5575zM134.16,72.24c-6.36937,0 -11.7175,4.42094 -13.26281,10.32h-110.57719c-1.23625,-0.01344 -2.39187,0.63156 -3.02344,1.70656c-0.61813,1.075 -0.61813,2.39187 0,3.46687c0.63156,1.075 1.78719,1.72 3.02344,1.70656h110.57719c1.54531,5.89906 6.89344,10.32 13.26281,10.32c6.36938,0 11.7175,-4.42094 13.26281,-10.32h14.25719c1.23625,0.01344 2.39188,-0.63156 3.02344,-1.70656c0.61813,-1.075 0.61813,-2.39187 0,-3.46687c-0.63156,-1.075 -1.78719,-1.72 -3.02344,-1.70656h-14.25719c-1.54531,-5.89906 -6.89344,-10.32 -13.26281,-10.32zM134.16,79.12c3.73563,0 6.67844,2.87563 6.83969,6.57094c-0.01344,0.20156 -0.01344,0.41656 0,0.63156c-0.16125,3.68188 -3.10406,6.5575 -6.83969,6.5575c-3.73562,0 -6.67844,-2.87562 -6.83969,-6.57094c0.01344,-0.20156 0.01344,-0.41656 0,-0.63156c0.16125,-3.68187 3.10406,-6.5575 6.83969,-6.5575zM48.16,120.4c-6.36937,0 -11.7175,4.42094 -13.26281,10.32h-24.57719c-1.23625,-0.01344 -2.39187,0.63156 -3.02344,1.70656c-0.61813,1.075 -0.61813,2.39187 0,3.46687c0.63156,1.075 1.78719,1.72 3.02344,1.70656h24.57719c1.54531,5.89906 6.89344,10.32 13.26281,10.32c6.36938,0 11.7175,-4.42094 13.26281,-10.32h100.25719c1.23625,0.01344 2.39188,-0.63156 3.02344,-1.70656c0.61813,-1.075 0.61813,-2.39187 0,-3.46687c-0.63156,-1.075 -1.78719,-1.72 -3.02344,-1.70656h-100.25719c-1.54531,-5.89906 -6.89344,-10.32 -13.26281,-10.32zM48.16,127.28c3.73563,0 6.67844,2.87563 6.83969,6.57094c-0.01344,0.20156 -0.01344,0.41656 0,0.63156c-0.16125,3.68188 -3.10406,6.5575 -6.83969,6.5575c-3.73562,0 -6.67844,-2.87562 -6.83969,-6.57094c0.01344,-0.20156 0.01344,-0.41656 0,-0.63156c0.16125,-3.68187 3.10406,-6.5575 6.83969,-6.5575z"></path>
            </g>
        </g>
    </g>
</svg>