
<svg width="15px" height="15px" viewBox="0 0 15 15" version="1.1" xmlns="http://www.w3.org/2000/svg" xmlns:xlink="http://www.w3.org/1999/xlink">
    <defs>
        <polygon id="path-1" points="7.4999564 15 0 15 0 0 7.4999564 0 14.9999128 0 14.9999128 15 7.4999564 15"></polygon>
    </defs>
    <g id="Page-1" stroke="none" stroke-width="1" fill="none" fill-rule="evenodd">
        <g id="En-Salong" transform="translate(-15.000000, -477.000000)">
            <g id="Page-1" transform="translate(15.000000, 477.000000)">
                <mask id="mask-2" fill="white">
                    <use xlink:href="#path-1"></use>
                </mask>
                <g id="Clip-2"></g>
                <path d="M11.1518895,10.6395349 L13.9261919,10.6395349 C12.9696802,12.5947674 11.1503198,14.0452326 8.9606686,14.4985465 C9.50956395,14.1073256 9.99444767,13.5081977 10.3834012,12.7597674 C10.7024128,12.145814 10.9614244,11.4280814 11.1518895,10.6395349 L11.1518895,10.6395349 Z M7.67450581,10.6395349 L10.7976453,10.6395349 C10.6146802,11.3724419 10.3659593,12.0319186 10.0727616,12.5963372 C9.44031977,13.8130814 8.59962209,14.5566279 7.67450581,14.6401744 L7.67450581,10.6395349 Z M4.20235465,10.6395349 L7.3256686,10.6395349 L7.3256686,14.6401744 C6.40020349,14.5566279 5.55950581,13.8130814 4.92723837,12.5963372 C4.6340407,12.0319186 4.38531977,11.3724419 4.20235465,10.6395349 L4.20235465,10.6395349 Z M1.07380814,10.6395349 L3.84811047,10.6395349 C4.03857558,11.4280814 4.29758721,12.145814 4.61659884,12.7597674 C5.00555233,13.5081977 5.49061047,14.1073256 6.0393314,14.4985465 C3.84950581,14.0452326 2.03031977,12.5947674 1.07380814,10.6395349 L1.07380814,10.6395349 Z M11.5117151,7.6744186 L14.6456686,7.6744186 C14.6235174,8.6005814 14.4314826,9.48401163 14.0897965,10.2906977 L11.2336919,10.2906977 C11.4034012,9.47895349 11.5007267,8.59709302 11.5117151,7.6744186 L11.5117151,7.6744186 Z M7.67450581,7.6744186 L11.1627035,7.6744186 C11.1513663,8.60110465 11.0484593,9.4847093 10.8738663,10.2906977 L7.67450581,10.2906977 L7.67450581,7.6744186 Z M3.83712209,7.6744186 L7.3256686,7.6744186 L7.3256686,10.2906977 L4.12613372,10.2906977 C3.9515407,9.4847093 3.84863372,8.60110465 3.83712209,7.6744186 L3.83712209,7.6744186 Z M0.354331395,7.6744186 L3.48828488,7.6744186 C3.49927326,8.59709302 3.59642442,9.47895349 3.76630814,10.2906977 L0.910203488,10.2906977 C0.56869186,9.48401163 0.37630814,8.6005814 0.354331395,7.6744186 L0.354331395,7.6744186 Z M11.2336919,4.70930233 L14.0897965,4.70930233 C14.4314826,5.51581395 14.6235174,6.3994186 14.6456686,7.3255814 L11.5117151,7.3255814 C11.5007267,6.40273256 11.4034012,5.52226744 11.2336919,4.70930233 L11.2336919,4.70930233 Z M7.67450581,4.70930233 L10.8738663,4.70930233 C11.0477616,5.5152907 11.1513663,6.40046512 11.1627035,7.3255814 L7.67450581,7.3255814 L7.67450581,4.70930233 Z M4.12613372,4.70930233 L7.3256686,4.70930233 L7.3256686,7.3255814 L3.83712209,7.3255814 C3.84863372,6.40046512 3.95223837,5.5152907 4.12613372,4.70930233 L4.12613372,4.70930233 Z M0.910203488,4.70930233 L3.76630814,4.70930233 C3.59642442,5.52226744 3.49927326,6.40273256 3.48828488,7.3255814 L0.354331395,7.3255814 C0.37630814,6.39924419 0.56869186,5.51581395 0.910203488,4.70930233 L0.910203488,4.70930233 Z M8.97165698,0.501453488 C11.1565988,0.957209302 12.97125,2.40837209 13.9261919,4.36046512 L11.1518895,4.36046512 C10.9614244,3.56895349 10.702936,2.84982558 10.3834012,2.23465116 C9.99671512,1.49040698 9.5165407,0.891453488 8.97165698,0.501453488 L8.97165698,0.501453488 Z M6.02834302,0.501453488 C5.48328488,0.891453488 5.0034593,1.49040698 4.61659884,2.23465116 C4.29706395,2.84982558 4.03857558,3.56895349 3.84811047,4.36046512 L1.07380814,4.36046512 C2.02875,2.40837209 3.84340116,0.957209302 6.02834302,0.501453488 L6.02834302,0.501453488 Z M7.67450581,0.359651163 C8.59962209,0.442848837 9.44031977,1.18133721 10.0727616,2.39825581 C10.3659593,2.96267442 10.6146802,3.62651163 10.7976453,4.36046512 L7.67450581,4.36046512 L7.67450581,0.359651163 Z M7.3256686,0.359651163 L7.3256686,4.36046512 L4.20235465,4.36046512 C4.38531977,3.62651163 4.6340407,2.96267442 4.92723837,2.39825581 C5.44752907,1.51918605 6.09793605,0.4725 7.3256686,0.359651163 L7.3256686,0.359651163 Z M7.50008721,0 C3.35991279,0 -8.72093023e-05,3.36 -8.72093023e-05,7.5 C-8.72093023e-05,11.64 3.35991279,15 7.50008721,15 C11.6400872,15 14.9999128,11.64 14.9999128,7.5 C14.9999128,3.36 11.6400872,0 7.50008721,0 L7.50008721,0 Z" id="Fill-1" fill="#000000" mask="url(#mask-2)"></path>
            </g>
        </g>
    </g>
</svg>