
<svg width="14px" height="14px" viewBox="0 0 14 14" version="1.1" xmlns="http://www.w3.org/2000/svg" xmlns:xlink="http://www.w3.org/1999/xlink">
    <g id="Page-1" stroke="none" stroke-width="1" fill="none" fill-rule="evenodd">
        <g id="En-Salong" transform="translate(-14.000000, -429.000000)" stroke="#202020" stroke-width="0.5">
            <path d="M22.599019,438.464543 C22.4388399,438.477892 22.2918755,438.397802 22.1451781,438.317579 C20.7970038,437.530165 19.6489199,436.408911 18.8480243,435.074085 C18.7013269,434.847031 18.5678443,434.580066 18.6212373,434.313101 C18.7145417,433.806 19.3553917,433.605777 19.5422673,433.125239 C19.7156612,432.71131 19.4888743,432.244121 19.2219091,431.883851 C18.781283,431.283179 18.2207895,430.762597 17.5799395,430.375364 C17.273063,430.188622 16.9393565,430.028443 16.57882,430.001746 C14.9638139,429.921657 14.8703761,432.618005 15.0839483,433.672518 C15.3107352,434.767075 15.8581474,435.78141 16.4988639,436.702573 C18.0072173,438.891554 20.0761977,440.747096 22.5855373,441.627948 C23.4666559,441.935091 24.4143825,442.121833 25.3219307,441.908395 C25.775905,441.801609 26.2030494,441.601385 26.5232742,441.254196 C26.8437659,440.92049 27.0172933,440.440086 26.9372037,439.986112 C26.8569807,439.518923 26.5367559,439.145305 26.2163976,438.811598 C25.7492085,438.331061 25.2284929,437.903917 24.6679994,437.530165 C24.5610798,437.463424 24.4542938,437.396683 24.3342929,437.383201 C24.2008103,437.369986 24.0806759,437.436727 23.9604081,437.503469 C23.6267016,437.690344 23.3196916,437.917131 23.0527264,438.170882 C22.9327255,438.290883 22.7992429,438.41115 22.6390638,438.437847 C22.625582,438.451062 22.6123673,438.464543 22.599019,438.464543" id="Fill-1"></path>
        </g>
    </g>
</svg>